#!OML:ASF E:\Steps\Project 1\Capture day 1\Session 2\Subject.ASF
:FULLY-SPECIFIED
:DEGREES
383
root 3.54828 17.145 7.66544 -152.99 -6.42566 176.832
lowerback -27.3141 -3.27639 -6.21366
upperback -0.051168 -2.70605 -0.227903
thorax 14.774 -1.80614 2.07758
lowerneck -1.61076 -3.83882 -1.77292
upperneck 18.8901 -6.58637 0.117333
head 6.04214 -3.82 -0.0954721
rclavicle 1.76918e-014 1.47101e-014
rhumerus -40.8059 -15.6636 -77.3245
rradius 37.8297
rwrist -5.99075
rhand -6.23548 -53.1952
rfingers 7.12502
rthumb 19.606 -82.2266
lclavicle 1.76918e-014 1.47101e-014
lhumerus -32.6296 1.30218 80.6776
lradius 42.0215
lwrist 0.344738
lhand -22.7214 -14.1615
lfingers 7.12502
lthumb 3.71214 15.7859
rfemur -23.7232 7.3537 19.1642
rtibia 10.3407
rfoot -21.8519 -4.17737
rtoes -4.00944
lfemur -24.5467 -9.48818 -22.2681
ltibia 8.34633
lfoot -4.47851 -8.62189
ltoes -0.768385
384
root 3.54713 17.1429 7.66017 -153.048 -6.38997 176.851
lowerback -27.3911 -3.20195 -6.25419
upperback -0.0940648 -2.5958 -0.244506
thorax 14.751 -1.76099 2.12153
lowerneck -1.57192 -3.90043 -1.71154
upperneck 18.5473 -6.61177 0.0927972
head 5.92452 -3.81287 -0.105068
rclavicle 4.07509e-015 1.15295e-014
rhumerus -40.6852 -15.8834 -77.1941
rradius 37.8515
rwrist -5.69985
rhand -6.12904 -53.4266
rfingers 7.12502
rthumb 19.7083 -82.4475
lclavicle 4.07509e-015 1.15295e-014
lhumerus -32.6115 1.0381 80.9085
lradius 41.9282
lwrist 0.218068
lhand -22.7092 -14.3421
lfingers 7.12502
lthumb 3.72392 15.6051
rfemur -23.6641 7.3464 19.1993
rtibia 10.4056
rfoot -21.9026 -4.14027
rtoes -3.98116
lfemur -24.4956 -9.4852 -22.2816
ltibia 8.42231
lfoot -4.50833 -8.60511
ltoes -1.08236
385
root 3.5461 17.141 7.65211 -153.098 -6.29862 176.841
lowerback -27.4637 -3.12325 -6.29983
upperback -0.147864 -2.47687 -0.295402
thorax 14.7103 -1.7117 2.13445
lowerneck -1.5916 -3.86661 -1.49917
upperneck 18.2999 -6.48994 -0.150358
head 5.83328 -3.7427 -0.202766
rclavicle -2.71341e-014 1.98785e-015
rhumerus -40.4769 -16.0337 -77.1407
rradius 37.7734
rwrist -5.39732
rhand -6.09291 -53.9439
rfingers 7.12502
rthumb 19.743 -82.9613
lclavicle -2.71341e-014 1.98785e-015
lhumerus -32.5099 0.750093 81.0983
lradius 41.761
lwrist 0.324957
lhand -22.4886 -14.2167
lfingers 7.12502
lthumb 3.93691 15.7266
rfemur -23.5139 7.35558 19.1924
rtibia 10.3112
rfoot -21.9137 -4.10273
rtoes -4.35246
lfemur -24.3717 -9.4521 -22.3485
ltibia 8.39883
lfoot -4.66603 -8.53885
ltoes -2.20542
386
root 3.5451 17.1397 7.64155 -153.177 -6.15504 176.831
lowerback -27.5328 -3.04292 -6.33409
upperback -0.168563 -2.35373 -0.354139
thorax 14.7057 -1.65923 2.13413
lowerneck -1.80858 -3.92044 -1.29665
upperneck 18.0526 -6.45812 -0.475011
head 5.7746 -3.71529 -0.334446
rclavicle 9.74045e-015 3.97569e-015
rhumerus -40.1073 -15.8533 -77.2632
rradius 37.6945
rwrist -5.51526
rhand -6.17604 -54.976
rfingers 7.12502
rthumb 19.6631 -84.0016
lclavicle 9.74045e-015 3.97569e-015
lhumerus -32.4309 0.559861 81.2454
lradius 41.6721
lwrist 0.380767
lhand -22.1227 -14.4844
lfingers 7.12502
lthumb 4.29028 15.4522
rfemur -23.3133 7.41113 19.1666
rtibia 10.1594
rfoot -21.9349 -4.10458
rtoes -4.85318
lfemur -24.1506 -9.48158 -22.3975
ltibia 8.26973
lfoot -4.83497 -8.42563
ltoes -4.44623
387
root 3.54496 17.139 7.63327 -153.311 -6.06755 176.864
lowerback -27.5074 -2.98392 -6.34245
upperback -0.180704 -2.27499 -0.367134
thorax 14.6719 -1.62396 2.15621
lowerneck -2.00529 -4.08011 -1.29963
upperneck 17.7096 -6.59684 -0.505638
head 5.70033 -3.76038 -0.348015
rclavicle 8.64713e-015 -3.97569e-016
rhumerus -39.8321 -15.6316 -77.3511
rradius 37.7178
rwrist -5.66827
rhand -6.44115 -55.5521
rfingers 7.12502
rthumb 19.4082 -84.6035
lclavicle 8.64713e-015 -3.97569e-016
lhumerus -32.2528 0.516437 81.4073
lradius 41.4099
lwrist 0.307452
lhand -21.9782 -14.518
lfingers 7.12502
lthumb 4.4298 15.4157
rfemur -23.0692 7.49587 19.2108
rtibia 10.0185
rfoot -21.9158 -4.12171
rtoes -4.98178
lfemur -23.9161 -9.42675 -22.4012
ltibia 8.18729
lfoot -4.89505 -8.4487
ltoes -5.81996
388
root 3.54563 17.1392 7.62739 -153.436 -6.0194 176.83
lowerback -27.4705 -2.98908 -6.45246
upperback -0.199163 -2.25385 -0.352591
thorax 14.6344 -1.6224 2.24133
lowerneck -2.13642 -4.11009 -1.27467
upperneck 17.4098 -6.55071 -0.683667
head 5.62142 -3.72932 -0.400783
rclavicle 7.45443e-015 8.74653e-015
rhumerus -39.6327 -15.6008 -77.2876
rradius 37.6896
rwrist -5.54759
rhand -6.48012 -54.8424
rfingers 7.12502
rthumb 19.3708 -83.8976
lclavicle 7.45443e-015 8.74653e-015
lhumerus -32.0583 0.543189 81.6076
lradius 40.9909
lwrist 0.194472
lhand -22.1166 -14.2014
lfingers 7.12502
lthumb 4.2962 15.735
rfemur -22.8747 7.54673 19.1864
rtibia 9.97371
rfoot -21.9231 -4.09204
rtoes -4.90643
lfemur -23.7233 -9.33598 -22.4827
ltibia 8.16764
lfoot -4.86501 -8.49307
ltoes -5.31504
389
root 3.54938 17.1379 7.62902 -153.349 -5.99855 176.757
lowerback -27.498 -3.02204 -6.61142
upperback -0.341971 -2.27064 -0.348244
thorax 14.4858 -1.64338 2.3254
lowerneck -2.1957 -4.0587 -1.19935
upperneck 17.3189 -6.43271 -0.889743
head 5.59297 -3.67527 -0.469614
rclavicle -2.98674e-014 3.97569e-015
rhumerus -39.471 -15.5137 -77.2576
rradius 37.644
rwrist -5.55725
rhand -6.11794 -54.2311
rfingers 7.12502
rthumb 19.719 -83.2509
lclavicle -2.98674e-014 3.97569e-015
lhumerus -32.2054 0.428434 81.7593
lradius 40.7705
lwrist 0.169374
lhand -22.1389 -14.257
lfingers 7.12502
lthumb 4.27461 15.6798
rfemur -22.9658 7.53698 19.0839
rtibia 9.9569
rfoot -21.9261 -4.08098
rtoes -5.04736
lfemur -23.861 -9.24557 -22.5551
ltibia 8.24446
lfoot -4.74473 -8.60341
ltoes -4.89624
390
root 3.54315 17.1332 7.6109 -153.455 -5.4633 176.925
lowerback -27.6932 -2.77776 -6.44809
upperback -0.403106 -1.99394 -0.416243
thorax 14.4744 -1.51086 2.26313
lowerneck -2.20691 -4.17643 -1.13885
upperneck 17.3897 -6.60679 -0.909084
head 5.61496 -3.76084 -0.497064
rclavicle 1.799e-014 1.98785e-014
rhumerus -39.311 -15.1676 -77.4141
rradius 37.6582
rwrist -5.82372
rhand -6.21776 -54.5195
rfingers 7.12502
rthumb 19.623 -83.5491
lclavicle 1.799e-014 1.98785e-014
lhumerus -32.4538 0.265673 81.8213
lradius 40.6586
lwrist 0.225203
lhand -21.989 -14.3193
lfingers 7.12502
lthumb 4.41941 15.6146
rfemur -22.9132 7.50282 19.1976
rtibia 10.0045
rfoot -21.9047 -3.46181
rtoes -4.67775
lfemur -23.4971 -9.08799 -22.5188
ltibia 7.9213
lfoot -4.82241 -8.20357
ltoes -5.99587
391
root 3.54049 17.1324 7.59768 -153.565 -5.10954 176.991
lowerback -27.8366 -2.62712 -6.41851
upperback -0.40554 -1.79349 -0.465622
thorax 14.5184 -1.421 2.26588
lowerneck -2.27702 -4.37307 -1.04255
upperneck 17.3573 -6.86511 -0.967239
head 5.61206 -3.88042 -0.545945
rclavicle 1.19271e-015 -7.95139e-015
rhumerus -39.0134 -14.9777 -77.5368
rradius 37.5736
rwrist -5.84532
rhand -6.4853 -54.7004
rfingers 7.12502
rthumb 19.3658 -83.7561
lclavicle 1.19271e-015 -7.95139e-015
lhumerus -32.4793 0.252116 81.9011
lradius 40.474
lwrist 0.183852
lhand -21.9347 -14.0873
lfingers 7.12502
lthumb 4.47179 15.8455
rfemur -22.8045 7.44742 19.2502
rtibia 9.9991
rfoot -21.8605 -3.04927
rtoes -4.22977
lfemur -23.1966 -8.96651 -22.5533
ltibia 7.72713
lfoot -4.96542 -7.921
ltoes -6.48144
392
root 3.5421 17.133 7.59078 -153.68 -5.08917 176.948
lowerback -27.9056 -2.63572 -6.51356
upperback -0.345478 -1.76017 -0.473925
thorax 14.6195 -1.41361 2.31856
lowerneck -2.44203 -4.44607 -0.949832
upperneck 17.0079 -6.88869 -1.06537
head 5.52397 -3.87064 -0.588061
rclavicle 1.90833e-014 2.34566e-014
rhumerus -38.6178 -15.0702 -77.569
rradius 37.4813
rwrist -5.56355
rhand -6.54308 -54.3828
rfingers 7.12502
rthumb 19.3102 -83.444
lclavicle 1.90833e-014 2.34566e-014
lhumerus -32.3386 0.300923 82.0108
lradius 40.1744
lwrist 0.138773
lhand -22.0014 -14.0093
lfingers 7.12502
lthumb 4.40737 15.9249
rfemur -22.5571 7.44677 19.2422
rtibia 9.84976
rfoot -21.8534 -3.09087
rtoes -4.95165
lfemur -22.9932 -8.97344 -22.6146
ltibia 7.65677
lfoot -5.01036 -7.89977
ltoes -5.67137
393
root 3.54357 17.1316 7.58717 -153.686 -5.1168 176.911
lowerback -28.0127 -2.67285 -6.5768
upperback -0.339873 -1.78257 -0.476593
thorax 14.6795 -1.43038 2.33735
lowerneck -2.59342 -4.41591 -0.871345
upperneck 16.5901 -6.75531 -1.21798
head 5.41085 -3.78723 -0.633985
rclavicle 1.50579e-014 3.73715e-014
rhumerus -38.3624 -15.0576 -77.6312
rradius 37.5769
rwrist -5.39143
rhand -6.60184 -54.0288
rfingers 7.12502
rthumb 19.2537 -83.0957
lclavicle 1.50579e-014 3.73715e-014
lhumerus -32.2126 0.357885 82.0883
lradius 39.7922
lwrist 0.239773
lhand -22.0703 -14.1079
lfingers 7.12502
lthumb 4.34087 15.8276
rfemur -22.4392 7.38473 19.2328
rtibia 9.70865
rfoot -21.8737 -3.07412
rtoes -5.54348
lfemur -22.9756 -8.96956 -22.6515
ltibia 7.67968
lfoot -4.95733 -7.98049
ltoes -5.66164
394
root 3.54456 17.1299 7.58446 -153.642 -5.05965 176.89
lowerback -28.082 -2.68325 -6.63906
upperback -0.422018 -1.78677 -0.486156
thorax 14.6165 -1.43889 2.35669
lowerneck -2.67732 -4.40128 -0.847207
upperneck 16.3477 -6.69044 -1.25418
head 5.34748 -3.74336 -0.641749
rclavicle -8.44835e-015 1.55052e-014
rhumerus -38.2079 -14.8972 -77.7057
rradius 37.651
rwrist -5.47864
rhand -6.57913 -53.9866
rfingers 7.12502
rthumb 19.2756 -83.0513
lclavicle -8.44835e-015 1.55052e-014
lhumerus -32.2587 0.326943 82.1328
lradius 39.5045
lwrist 0.475267
lhand -22.0033 -13.8823
lfingers 7.12502
lthumb 4.40558 16.0519
rfemur -22.4044 7.28164 19.2106
rtibia 9.56655
rfoot -21.843 -2.89546
rtoes -5.49312
lfemur -23.0446 -8.92697 -22.6828
ltibia 7.75686
lfoot -4.9519 -7.98757
ltoes -6.32797
